<?xml version="1.0" encoding="UTF-8"?>
<svg width="42px" height="81px" viewBox="0 0 42 81" version="1.1" xmlns="http://www.w3.org/2000/svg" xmlns:xlink="http://www.w3.org/1999/xlink">
    <!-- Generator: Sketch 50.2 (55047) - http://www.bohemiancoding.com/sketch -->
    <title>3</title>
    <desc>Created with Sketch.</desc>
    <defs>
        <linearGradient x1="50%" y1="100%" x2="50%" y2="3.061617e-15%" id="linearGradient-1">
            <stop stop-color="#FDFED0" offset="0%"></stop>
            <stop stop-color="#FB8E64" offset="24.8519814%"></stop>
            <stop stop-color="#BA3877" offset="49.0804616%"></stop>
            <stop stop-color="#54137C" offset="72.607559%"></stop>
            <stop stop-color="#000004" offset="100%"></stop>
        </linearGradient>
    </defs>
    <g id="Page-1" stroke="none" stroke-width="1" fill="none" fill-rule="evenodd">
        <g id="3">
            <rect id="Rectangle-3" fill="url(#linearGradient-1)" x="0" y="1" width="10" height="80"></rect>
            <path d="M21.17,59.7 C21.17,59.2533333 21.3533333,58.8416667 21.72,58.465 C22.0866667,58.0883333 22.5333333,57.9 23.06,57.9 C23.58,57.9 24.02,58.075 24.38,58.425 C24.74,58.775 24.92,59.21 24.92,59.73 C24.92,60.1166667 24.8166667,60.4816667 24.61,60.825 C24.4033333,61.1683333 24.1533333,61.465 23.86,61.715 C23.5666667,61.965 23.2733333,62.2116667 22.98,62.455 C22.6866667,62.6983333 22.4366667,62.97 22.23,63.27 C22.0233333,63.57 21.92,63.8866667 21.92,64.22 L24.74,64.22 C24.7933333,64.22 24.8366667,64.2366667 24.87,64.27 C24.9033333,64.3033333 24.92,64.3466667 24.92,64.4 L24.92,64.82 C24.92,64.8733333 24.9033333,64.9166667 24.87,64.95 C24.8366667,64.9833333 24.7933333,65 24.74,65 L21.26,65 C21.2066667,65 21.1633333,64.9833333 21.13,64.95 C21.0966667,64.9166667 21.08,64.8733333 21.08,64.82 L21.08,64.27 C21.08,63.83 21.1833333,63.425 21.39,63.055 C21.5966667,62.685 21.8466667,62.37 22.14,62.11 C22.4333333,61.85 22.7266667,61.6 23.02,61.36 C23.3133333,61.12 23.5633333,60.8566667 23.77,60.57 C23.9766667,60.2833333 24.08,59.9833333 24.08,59.67 C24.08,59.3966667 23.9783333,59.165 23.775,58.975 C23.5716667,58.785 23.33,58.69 23.05,58.69 C22.7566667,58.69 22.5133333,58.8033333 22.32,59.03 C22.1266667,59.2566667 22.0233333,59.48 22.01,59.7 C21.9966667,59.8333333 21.92,59.9 21.78,59.9 L21.4,59.9 C21.3266667,59.9 21.27,59.88 21.23,59.84 C21.19,59.8 21.17,59.7533333 21.17,59.7 Z M30.32,59.74 L30.32,63.26 C30.32,63.7733333 30.145,64.2083333 29.795,64.565 C29.445,64.9216667 29.01,65.1 28.49,65.1 C27.97,65.1 27.5383333,64.92 27.195,64.56 C26.8516667,64.2 26.68,63.7633333 26.68,63.25 L26.68,59.74 C26.68,59.2266667 26.8516667,58.7916667 27.195,58.435 C27.5383333,58.0783333 27.97,57.9 28.49,57.9 C29.01,57.9 29.445,58.0783333 29.795,58.435 C30.145,58.7916667 30.32,59.2266667 30.32,59.74 Z M29.49,63.27 L29.49,59.75 C29.49,59.4566667 29.3933333,59.2066667 29.2,59 C29.0066667,58.7933333 28.77,58.69 28.49,58.69 C28.2166667,58.69 27.9833333,58.7933333 27.79,59 C27.5966667,59.2066667 27.5,59.4566667 27.5,59.75 L27.5,63.26 C27.5,63.5533333 27.5966667,63.8016667 27.79,64.005 C27.9833333,64.2083333 28.22,64.31 28.5,64.31 C28.7733333,64.31 29.0066667,64.21 29.2,64.01 C29.3933333,63.81 29.49,63.5633333 29.49,63.27 Z M35.82,59.74 L35.82,63.26 C35.82,63.7733333 35.645,64.2083333 35.295,64.565 C34.945,64.9216667 34.51,65.1 33.99,65.1 C33.47,65.1 33.0383333,64.92 32.695,64.56 C32.3516667,64.2 32.18,63.7633333 32.18,63.25 L32.18,59.74 C32.18,59.2266667 32.3516667,58.7916667 32.695,58.435 C33.0383333,58.0783333 33.47,57.9 33.99,57.9 C34.51,57.9 34.945,58.0783333 35.295,58.435 C35.645,58.7916667 35.82,59.2266667 35.82,59.74 Z M34.99,63.27 L34.99,59.75 C34.99,59.4566667 34.8933333,59.2066667 34.7,59 C34.5066667,58.7933333 34.27,58.69 33.99,58.69 C33.7166667,58.69 33.4833333,58.7933333 33.29,59 C33.0966667,59.2066667 33,59.4566667 33,59.75 L33,63.26 C33,63.5533333 33.0966667,63.8016667 33.29,64.005 C33.4833333,64.2083333 33.72,64.31 34,64.31 C34.2733333,64.31 34.5066667,64.21 34.7,64.01 C34.8933333,63.81 34.99,63.5633333 34.99,63.27 Z M41.54,58.25 L39.4,61.3 L41.66,64.75 C41.6933333,64.8033333 41.71,64.8466667 41.71,64.88 C41.71,64.96 41.6533333,65 41.54,65 L41,65 C40.9,65 40.81,64.9366667 40.73,64.81 L38.5,61.35 L38.5,64.8 C38.5,64.8533333 38.48,64.9 38.44,64.94 C38.4,64.98 38.3433333,65 38.27,65 L37.89,65 C37.8166667,65 37.76,64.98 37.72,64.94 C37.68,64.9 37.66,64.8533333 37.66,64.8 L37.66,58.2 C37.66,58.1466667 37.68,58.1 37.72,58.06 C37.76,58.02 37.8166667,58 37.89,58 L38.27,58 C38.3433333,58 38.4,58.02 38.44,58.06 C38.48,58.1 38.5,58.1466667 38.5,58.2 L38.5,61.23 L40.6,58.2 C40.6866667,58.0666667 40.78,58 40.88,58 L41.42,58 C41.5333333,58 41.59,58.04 41.59,58.12 C41.59,58.1533333 41.5733333,58.1966667 41.54,58.25 Z" id="200K" fill="#34444C" opacity="0.600000024"></path>
            <path d="M22.19,42.44 C22.1366667,42.52 22.0666667,42.56 21.98,42.56 C21.9533333,42.56 21.9,42.5466667 21.82,42.52 L21.48,42.42 C21.3733333,42.3866667 21.3266667,42.2966667 21.34,42.15 L21.59,39.23 C21.6033333,39.0766667 21.6766667,39 21.81,39 L24.44,39 C24.5866667,39 24.66,39.0766667 24.66,39.23 L24.66,39.56 C24.66,39.7133333 24.5866667,39.79 24.44,39.79 L22.41,39.79 L22.24,41.52 C22.4266667,41.36 22.7033333,41.28 23.07,41.28 C23.5833333,41.28 24.0166667,41.4533333 24.37,41.8 C24.7233333,42.1466667 24.9,42.5833333 24.9,43.11 L24.9,44.25 C24.9,44.7633333 24.7166667,45.2 24.35,45.56 C23.9833333,45.92 23.5366667,46.1 23.01,46.1 C22.4633333,46.1 22.0083333,45.9216667 21.645,45.565 C21.2816667,45.2083333 21.1,44.7733333 21.1,44.26 C21.1,44.2066667 21.12,44.16 21.16,44.12 C21.2,44.08 21.2566667,44.06 21.33,44.06 L21.71,44.06 C21.7833333,44.06 21.84,44.08 21.88,44.12 C21.92,44.16 21.94,44.2066667 21.94,44.26 C21.94,44.5533333 22.0433333,44.8016667 22.25,45.005 C22.4566667,45.2083333 22.71,45.31 23.01,45.31 C23.3033333,45.31 23.5516667,45.2083333 23.755,45.005 C23.9583333,44.8016667 24.06,44.5533333 24.06,44.26 L24.06,43.12 C24.06,42.8266667 23.9566667,42.5783333 23.75,42.375 C23.5433333,42.1716667 23.2866667,42.07 22.98,42.07 C22.84,42.07 22.7066667,42.0983333 22.58,42.155 C22.4533333,42.2116667 22.3633333,42.2633333 22.31,42.31 C22.2566667,42.3566667 22.2166667,42.4 22.19,42.44 Z M30.32,40.74 L30.32,44.26 C30.32,44.7733333 30.145,45.2083333 29.795,45.565 C29.445,45.9216667 29.01,46.1 28.49,46.1 C27.97,46.1 27.5383333,45.92 27.195,45.56 C26.8516667,45.2 26.68,44.7633333 26.68,44.25 L26.68,40.74 C26.68,40.2266667 26.8516667,39.7916667 27.195,39.435 C27.5383333,39.0783333 27.97,38.9 28.49,38.9 C29.01,38.9 29.445,39.0783333 29.795,39.435 C30.145,39.7916667 30.32,40.2266667 30.32,40.74 Z M29.49,44.27 L29.49,40.75 C29.49,40.4566667 29.3933333,40.2066667 29.2,40 C29.0066667,39.7933333 28.77,39.69 28.49,39.69 C28.2166667,39.69 27.9833333,39.7933333 27.79,40 C27.5966667,40.2066667 27.5,40.4566667 27.5,40.75 L27.5,44.26 C27.5,44.5533333 27.5966667,44.8016667 27.79,45.005 C27.9833333,45.2083333 28.22,45.31 28.5,45.31 C28.7733333,45.31 29.0066667,45.21 29.2,45.01 C29.3933333,44.81 29.49,44.5633333 29.49,44.27 Z M35.82,40.74 L35.82,44.26 C35.82,44.7733333 35.645,45.2083333 35.295,45.565 C34.945,45.9216667 34.51,46.1 33.99,46.1 C33.47,46.1 33.0383333,45.92 32.695,45.56 C32.3516667,45.2 32.18,44.7633333 32.18,44.25 L32.18,40.74 C32.18,40.2266667 32.3516667,39.7916667 32.695,39.435 C33.0383333,39.0783333 33.47,38.9 33.99,38.9 C34.51,38.9 34.945,39.0783333 35.295,39.435 C35.645,39.7916667 35.82,40.2266667 35.82,40.74 Z M34.99,44.27 L34.99,40.75 C34.99,40.4566667 34.8933333,40.2066667 34.7,40 C34.5066667,39.7933333 34.27,39.69 33.99,39.69 C33.7166667,39.69 33.4833333,39.7933333 33.29,40 C33.0966667,40.2066667 33,40.4566667 33,40.75 L33,44.26 C33,44.5533333 33.0966667,44.8016667 33.29,45.005 C33.4833333,45.2083333 33.72,45.31 34,45.31 C34.2733333,45.31 34.5066667,45.21 34.7,45.01 C34.8933333,44.81 34.99,44.5633333 34.99,44.27 Z M41.54,39.25 L39.4,42.3 L41.66,45.75 C41.6933333,45.8033333 41.71,45.8466667 41.71,45.88 C41.71,45.96 41.6533333,46 41.54,46 L41,46 C40.9,46 40.81,45.9366667 40.73,45.81 L38.5,42.35 L38.5,45.8 C38.5,45.8533333 38.48,45.9 38.44,45.94 C38.4,45.98 38.3433333,46 38.27,46 L37.89,46 C37.8166667,46 37.76,45.98 37.72,45.94 C37.68,45.9 37.66,45.8533333 37.66,45.8 L37.66,39.2 C37.66,39.1466667 37.68,39.1 37.72,39.06 C37.76,39.02 37.8166667,39 37.89,39 L38.27,39 C38.3433333,39 38.4,39.02 38.44,39.06 C38.48,39.1 38.5,39.1466667 38.5,39.2 L38.5,42.23 L40.6,39.2 C40.6866667,39.0666667 40.78,39 40.88,39 L41.42,39 C41.5333333,39 41.59,39.04 41.59,39.12 C41.59,39.1533333 41.5733333,39.1966667 41.54,39.25 Z" id="500K" fill="#34444C" opacity="0.600000024"></path>
            <path d="M21.39,20.18 L22.52,20 L23.23,20 C23.2766667,20 23.3183333,20.0166667 23.355,20.05 C23.3916667,20.0833333 23.41,20.1266667 23.41,20.18 L23.41,26.23 L24.73,26.23 C24.7766667,26.23 24.8183333,26.2483333 24.855,26.285 C24.8916667,26.3216667 24.91,26.3633333 24.91,26.41 L24.91,26.82 C24.91,26.8733333 24.8916667,26.9166667 24.855,26.95 C24.8183333,26.9833333 24.7766667,27 24.73,27 L21.26,27 C21.2066667,27 21.1633333,26.9833333 21.13,26.95 C21.0966667,26.9166667 21.08,26.8733333 21.08,26.82 L21.08,26.41 C21.08,26.3633333 21.0966667,26.3216667 21.13,26.285 C21.1633333,26.2483333 21.2066667,26.23 21.26,26.23 L22.57,26.23 L22.57,20.79 L21.47,20.96 L21.44,20.96 C21.4133333,20.9666667 21.3833333,20.97 21.35,20.97 C21.2566667,20.97 21.21,20.91 21.21,20.79 L21.21,20.37 C21.21,20.27 21.27,20.2066667 21.39,20.18 Z M29.55,21.89 L28.95,23.49 C28.8966667,23.6233333 28.82,23.69 28.72,23.69 L28.28,23.69 C28.18,23.69 28.1033333,23.6233333 28.05,23.49 L27.45,21.9 L27.28,21.18 L27.22,21.19 L27.3,22.36 L27.3,26.8 C27.3,26.8533333 27.28,26.9 27.24,26.94 C27.2,26.98 27.1433333,27 27.07,27 L26.69,27 C26.6166667,27 26.56,26.98 26.52,26.94 C26.48,26.9 26.46,26.8533333 26.46,26.8 L26.46,20.2 C26.46,20.1466667 26.48,20.1 26.52,20.06 C26.56,20.02 26.6166667,20 26.69,20 L27.39,20 C27.5033333,20 27.58,20.0666667 27.62,20.2 L28.48,22.84 L28.52,22.84 L29.38,20.2 C29.42,20.0666667 29.4966667,20 29.61,20 L30.31,20 C30.3833333,20 30.44,20.02 30.48,20.06 C30.52,20.1 30.54,20.1466667 30.54,20.2 L30.54,26.8 C30.54,26.8533333 30.52,26.9 30.48,26.94 C30.44,26.98 30.3833333,27 30.31,27 L29.93,27 C29.8566667,27 29.8,26.98 29.76,26.94 C29.72,26.9 29.7,26.8533333 29.7,26.8 L29.7,22.36 L29.78,21.19 L29.72,21.18 L29.55,21.89 Z" id="1M" fill="#34444C" opacity="0.600000024"></path>
            <path d="M21.17,2.7 C21.17,2.25333328 21.3533333,1.84166672 21.72,1.465 C22.0866667,1.08833328 22.5333333,0.9 23.06,0.9 C23.58,0.9 24.02,1.075 24.38,1.425 C24.74,1.775 24.92,2.21 24.92,2.73 C24.92,3.11666672 24.8166667,3.48166672 24.61,3.825 C24.4033333,4.16833328 24.1533333,4.465 23.86,4.715 C23.5666667,4.965 23.2733333,5.21166672 22.98,5.455 C22.6866667,5.69833328 22.4366667,5.97 22.23,6.27 C22.0233333,6.57 21.92,6.88666672 21.92,7.22 L24.74,7.22 C24.7933333,7.22 24.8366667,7.23666672 24.87,7.27 C24.9033333,7.30333328 24.92,7.34666672 24.92,7.4 L24.92,7.82 C24.92,7.87333328 24.9033333,7.91666672 24.87,7.95 C24.8366667,7.98333328 24.7933333,8 24.74,8 L21.26,8 C21.2066667,8 21.1633333,7.98333328 21.13,7.95 C21.0966667,7.91666672 21.08,7.87333328 21.08,7.82 L21.08,7.27 C21.08,6.83 21.1833333,6.425 21.39,6.055 C21.5966667,5.685 21.8466667,5.37 22.14,5.11 C22.4333333,4.85 22.7266667,4.6 23.02,4.36 C23.3133333,4.12 23.5633333,3.85666672 23.77,3.57 C23.9766667,3.28333328 24.08,2.98333328 24.08,2.67 C24.08,2.39666672 23.9783333,2.165 23.775,1.975 C23.5716667,1.785 23.33,1.69 23.05,1.69 C22.7566667,1.69 22.5133333,1.80333328 22.32,2.03 C22.1266667,2.25666672 22.0233333,2.48 22.01,2.7 C21.9966667,2.83333328 21.92,2.9 21.78,2.9 L21.4,2.9 C21.3266667,2.9 21.27,2.88 21.23,2.84 C21.19,2.8 21.17,2.75333328 21.17,2.7 Z M29.55,2.89 L28.95,4.49 C28.8966667,4.62333328 28.82,4.69 28.72,4.69 L28.28,4.69 C28.18,4.69 28.1033333,4.62333328 28.05,4.49 L27.45,2.9 L27.28,2.18 L27.22,2.19 L27.3,3.36 L27.3,7.8 C27.3,7.85333328 27.28,7.9 27.24,7.94 C27.2,7.98 27.1433333,8 27.07,8 L26.69,8 C26.6166667,8 26.56,7.98 26.52,7.94 C26.48,7.9 26.46,7.85333328 26.46,7.8 L26.46,1.2 C26.46,1.14666672 26.48,1.1 26.52,1.06 C26.56,1.02 26.6166667,1 26.69,1 L27.39,1 C27.5033333,1 27.58,1.06666672 27.62,1.2 L28.48,3.84 L28.52,3.84 L29.38,1.2 C29.42,1.06666672 29.4966667,1 29.61,1 L30.31,1 C30.3833333,1 30.44,1.02 30.48,1.06 C30.52,1.1 30.54,1.14666672 30.54,1.2 L30.54,7.8 C30.54,7.85333328 30.52,7.9 30.48,7.94 C30.44,7.98 30.3833333,8 30.31,8 L29.93,8 C29.8566667,8 29.8,7.98 29.76,7.94 C29.72,7.9 29.7,7.85333328 29.7,7.8 L29.7,3.36 L29.78,2.19 L29.72,2.18 L29.55,2.89 Z" id="2M" fill="#34444C" opacity="0.600000024"></path>
            <path d="M10,43 L16,43" id="Shape" stroke="#34444C" opacity="0.300000012" stroke-linejoin="round"></path>
            <path d="M10,24 L16,24" id="Shape" stroke="#34444C" opacity="0.300000012" stroke-linejoin="round"></path>
            <path d="M10,5 L16,5" id="Shape" stroke="#34444C" opacity="0.300000012" stroke-linejoin="round"></path>
            <path d="M10,62 L16,62" id="Shape" stroke="#34444C" opacity="0.300000012" stroke-linejoin="round"></path>
        </g>
    </g>
</svg>