<?xml version="1.0" encoding="UTF-8"?>
<svg width="52px" height="100px" viewBox="0 0 52 100" version="1.1" xmlns="http://www.w3.org/2000/svg" xmlns:xlink="http://www.w3.org/1999/xlink">
    <!-- Generator: Sketch 50.2 (55047) - http://www.bohemiancoding.com/sketch -->
    <title>legend</title>
    <desc>Created with Sketch.</desc>
    <defs>
        <linearGradient x1="50%" y1="100%" x2="50%" y2="3.061617e-15%" id="linearGradient-1">
            <stop stop-color="#FDFED0" offset="0%"></stop>
            <stop stop-color="#FB8E64" offset="24.8519814%"></stop>
            <stop stop-color="#BA3877" offset="49.0804616%"></stop>
            <stop stop-color="#54137C" offset="72.607559%"></stop>
            <stop stop-color="#000004" offset="100%"></stop>
        </linearGradient>
    </defs>
    <g id="Page-1" stroke="none" stroke-width="1" fill="none" fill-rule="evenodd">
        <g id="legend">
            <rect id="Rectangle-3" fill="url(#linearGradient-1)" fill-rule="nonzero" x="0" y="20" width="10" height="80"></rect>
            <path d="M24.62,77.89 L23.54,79.29 C23.9,79.3366667 24.2166667,79.5083333 24.49,79.805 C24.7633333,80.1016667 24.9,80.45 24.9,80.85 L24.9,82.25 C24.9,82.7633333 24.7166667,83.2 24.35,83.56 C23.9833333,83.92 23.5333333,84.1 23,84.1 C22.4533333,84.1 21.9983333,83.9216667 21.635,83.565 C21.2716667,83.2083333 21.09,82.7733333 21.09,82.26 C21.09,82.2066667 21.11,82.16 21.15,82.12 C21.19,82.08 21.2466667,82.06 21.32,82.06 L21.7,82.06 C21.84,82.06 21.9166667,82.1266667 21.93,82.26 C21.93,82.5533333 22.0333333,82.8016667 22.24,83.005 C22.4466667,83.2083333 22.7,83.31 23,83.31 C23.2933333,83.31 23.5433333,83.2083333 23.75,83.005 C23.9566667,82.8016667 24.06,82.5533333 24.06,82.26 L24.06,80.86 C24.06,80.6466667 23.9833333,80.4616667 23.83,80.305 C23.6766667,80.1483333 23.49,80.07 23.27,80.07 L22.74,80.07 C22.5933333,80.07 22.52,79.9933333 22.52,79.84 L22.52,79.5 C22.52,79.3866667 22.5566667,79.28 22.63,79.18 L23.66,77.79 L21.69,77.79 C21.5433333,77.79 21.47,77.7133333 21.47,77.56 L21.47,77.23 C21.47,77.0766667 21.5433333,77 21.69,77 L24.51,77 C24.6566667,77 24.73,77.0766667 24.73,77.23 L24.73,77.57 C24.73,77.6833333 24.6933333,77.79 24.62,77.89 Z M30.82,78.74 L30.82,82.26 C30.82,82.7733333 30.645,83.2083333 30.295,83.565 C29.945,83.9216667 29.51,84.1 28.99,84.1 C28.47,84.1 28.0383333,83.92 27.695,83.56 C27.3516667,83.2 27.18,82.7633333 27.18,82.25 L27.18,78.74 C27.18,78.2266667 27.3516667,77.7916667 27.695,77.435 C28.0383333,77.0783333 28.47,76.9 28.99,76.9 C29.51,76.9 29.945,77.0783333 30.295,77.435 C30.645,77.7916667 30.82,78.2266667 30.82,78.74 Z M29.99,82.27 L29.99,78.75 C29.99,78.4566667 29.8933333,78.2066667 29.7,78 C29.5066667,77.7933333 29.27,77.69 28.99,77.69 C28.7166667,77.69 28.4833333,77.7933333 28.29,78 C28.0966667,78.2066667 28,78.4566667 28,78.75 L28,82.26 C28,82.5533333 28.0966667,82.8016667 28.29,83.005 C28.4833333,83.2083333 28.72,83.31 29,83.31 C29.2733333,83.31 29.5066667,83.21 29.7,83.01 C29.8933333,82.81 29.99,82.5633333 29.99,82.27 Z M36.82,78.74 L36.82,82.26 C36.82,82.7733333 36.645,83.2083333 36.295,83.565 C35.945,83.9216667 35.51,84.1 34.99,84.1 C34.47,84.1 34.0383333,83.92 33.695,83.56 C33.3516667,83.2 33.18,82.7633333 33.18,82.25 L33.18,78.74 C33.18,78.2266667 33.3516667,77.7916667 33.695,77.435 C34.0383333,77.0783333 34.47,76.9 34.99,76.9 C35.51,76.9 35.945,77.0783333 36.295,77.435 C36.645,77.7916667 36.82,78.2266667 36.82,78.74 Z M35.99,82.27 L35.99,78.75 C35.99,78.4566667 35.8933333,78.2066667 35.7,78 C35.5066667,77.7933333 35.27,77.69 34.99,77.69 C34.7166667,77.69 34.4833333,77.7933333 34.29,78 C34.0966667,78.2066667 34,78.4566667 34,78.75 L34,82.26 C34,82.5533333 34.0966667,82.8016667 34.29,83.005 C34.4833333,83.2083333 34.72,83.31 35,83.31 C35.2733333,83.31 35.5066667,83.21 35.7,83.01 C35.8933333,82.81 35.99,82.5633333 35.99,82.27 Z M43.04,77.25 L40.9,80.3 L43.16,83.75 C43.1933333,83.8033333 43.21,83.8466667 43.21,83.88 C43.21,83.96 43.1533333,84 43.04,84 L42.5,84 C42.4,84 42.31,83.9366667 42.23,83.81 L40,80.35 L40,83.8 C40,83.8533333 39.98,83.9 39.94,83.94 C39.9,83.98 39.8433333,84 39.77,84 L39.39,84 C39.3166667,84 39.26,83.98 39.22,83.94 C39.18,83.9 39.16,83.8533333 39.16,83.8 L39.16,77.2 C39.16,77.1466667 39.18,77.1 39.22,77.06 C39.26,77.02 39.3166667,77 39.39,77 L39.77,77 C39.8433333,77 39.9,77.02 39.94,77.06 C39.98,77.1 40,77.1466667 40,77.2 L40,80.23 L42.1,77.2 C42.1866667,77.0666667 42.28,77 42.38,77 L42.92,77 C43.0333333,77 43.09,77.04 43.09,77.12 C43.09,77.1533333 43.0733333,77.1966667 43.04,77.25 Z" id="300K" fill="#34444C" opacity="0.600000024"></path>
            <path d="M22.95,57.9 C23.4766667,57.9 23.915,58.0683333 24.265,58.405 C24.615,58.7416667 24.79,59.1266667 24.79,59.56 C24.79,59.6133333 24.77,59.66 24.73,59.7 C24.69,59.74 24.6333333,59.76 24.56,59.76 L24.18,59.76 C24.04,59.76 23.9633333,59.6933333 23.95,59.56 C23.9366667,59.3466667 23.8416667,59.15 23.665,58.97 C23.4883333,58.79 23.25,58.7 22.95,58.7 C22.6633333,58.7 22.4216667,58.8033333 22.225,59.01 C22.0283333,59.2166667 21.93,59.4666667 21.93,59.76 L21.93,60.72 C21.9566667,60.6866667 22,60.645 22.06,60.595 C22.12,60.545 22.2516667,60.48 22.455,60.4 C22.6583333,60.32 22.8733333,60.28 23.1,60.28 C23.5933333,60.28 24.0166667,60.4533333 24.37,60.8 C24.7233333,61.1466667 24.9,61.5833333 24.9,62.11 L24.9,63.25 C24.9,63.7633333 24.7183333,64.2 24.355,64.56 C23.9916667,64.92 23.54,65.1 23,65.1 C22.46,65.1 22.0083333,64.9216667 21.645,64.565 C21.2816667,64.2083333 21.1,63.7733333 21.1,63.26 L21.1,59.75 C21.1,59.2366667 21.2766667,58.8 21.63,58.44 C21.9833333,58.08 22.4233333,57.9 22.95,57.9 Z M23,61.07 C22.6933333,61.07 22.4383333,61.1666667 22.235,61.36 C22.0316667,61.5533333 21.93,61.8066667 21.93,62.12 L21.93,63.27 C21.93,63.5633333 22.0333333,63.81 22.24,64.01 C22.4466667,64.21 22.7,64.31 23,64.31 C23.2933333,64.31 23.5433333,64.2083333 23.75,64.005 C23.9566667,63.8016667 24.06,63.5533333 24.06,63.26 L24.06,62.12 C24.06,61.8133333 23.9583333,61.5616667 23.755,61.365 C23.5516667,61.1683333 23.3,61.07 23,61.07 Z M30.82,59.74 L30.82,63.26 C30.82,63.7733333 30.645,64.2083333 30.295,64.565 C29.945,64.9216667 29.51,65.1 28.99,65.1 C28.47,65.1 28.0383333,64.92 27.695,64.56 C27.3516667,64.2 27.18,63.7633333 27.18,63.25 L27.18,59.74 C27.18,59.2266667 27.3516667,58.7916667 27.695,58.435 C28.0383333,58.0783333 28.47,57.9 28.99,57.9 C29.51,57.9 29.945,58.0783333 30.295,58.435 C30.645,58.7916667 30.82,59.2266667 30.82,59.74 Z M29.99,63.27 L29.99,59.75 C29.99,59.4566667 29.8933333,59.2066667 29.7,59 C29.5066667,58.7933333 29.27,58.69 28.99,58.69 C28.7166667,58.69 28.4833333,58.7933333 28.29,59 C28.0966667,59.2066667 28,59.4566667 28,59.75 L28,63.26 C28,63.5533333 28.0966667,63.8016667 28.29,64.005 C28.4833333,64.2083333 28.72,64.31 29,64.31 C29.2733333,64.31 29.5066667,64.21 29.7,64.01 C29.8933333,63.81 29.99,63.5633333 29.99,63.27 Z M36.82,59.74 L36.82,63.26 C36.82,63.7733333 36.645,64.2083333 36.295,64.565 C35.945,64.9216667 35.51,65.1 34.99,65.1 C34.47,65.1 34.0383333,64.92 33.695,64.56 C33.3516667,64.2 33.18,63.7633333 33.18,63.25 L33.18,59.74 C33.18,59.2266667 33.3516667,58.7916667 33.695,58.435 C34.0383333,58.0783333 34.47,57.9 34.99,57.9 C35.51,57.9 35.945,58.0783333 36.295,58.435 C36.645,58.7916667 36.82,59.2266667 36.82,59.74 Z M35.99,63.27 L35.99,59.75 C35.99,59.4566667 35.8933333,59.2066667 35.7,59 C35.5066667,58.7933333 35.27,58.69 34.99,58.69 C34.7166667,58.69 34.4833333,58.7933333 34.29,59 C34.0966667,59.2066667 34,59.4566667 34,59.75 L34,63.26 C34,63.5533333 34.0966667,63.8016667 34.29,64.005 C34.4833333,64.2083333 34.72,64.31 35,64.31 C35.2733333,64.31 35.5066667,64.21 35.7,64.01 C35.8933333,63.81 35.99,63.5633333 35.99,63.27 Z M43.04,58.25 L40.9,61.3 L43.16,64.75 C43.1933333,64.8033333 43.21,64.8466667 43.21,64.88 C43.21,64.96 43.1533333,65 43.04,65 L42.5,65 C42.4,65 42.31,64.9366667 42.23,64.81 L40,61.35 L40,64.8 C40,64.8533333 39.98,64.9 39.94,64.94 C39.9,64.98 39.8433333,65 39.77,65 L39.39,65 C39.3166667,65 39.26,64.98 39.22,64.94 C39.18,64.9 39.16,64.8533333 39.16,64.8 L39.16,58.2 C39.16,58.1466667 39.18,58.1 39.22,58.06 C39.26,58.02 39.3166667,58 39.39,58 L39.77,58 C39.8433333,58 39.9,58.02 39.94,58.06 C39.98,58.1 40,58.1466667 40,58.2 L40,61.23 L42.1,58.2 C42.1866667,58.0666667 42.28,58 42.38,58 L42.92,58 C43.0333333,58 43.09,58.04 43.09,58.12 C43.09,58.1533333 43.0733333,58.1966667 43.04,58.25 Z" id="600K" fill="#34444C" opacity="0.600000024"></path>
            <path d="M23.05,46.1 C22.5233333,46.1 22.085,45.9316667 21.735,45.595 C21.385,45.2583333 21.21,44.8733333 21.21,44.44 C21.21,44.3866667 21.23,44.34 21.27,44.3 C21.31,44.26 21.3666667,44.24 21.44,44.24 L21.82,44.24 C21.96,44.24 22.0366667,44.3066667 22.05,44.44 C22.0633333,44.6533333 22.1583333,44.85 22.335,45.03 C22.5116667,45.21 22.75,45.3 23.05,45.3 C23.3366667,45.3 23.5783333,45.1966667 23.775,44.99 C23.9716667,44.7833333 24.07,44.5333333 24.07,44.24 L24.07,43.28 C24.0433333,43.3133333 24,43.355 23.94,43.405 C23.88,43.455 23.7483333,43.52 23.545,43.6 C23.3416667,43.68 23.1266667,43.72 22.9,43.72 C22.4066667,43.72 21.9833333,43.5466667 21.63,43.2 C21.2766667,42.8533333 21.1,42.4166667 21.1,41.89 L21.1,40.75 C21.1,40.2366667 21.2816667,39.8 21.645,39.44 C22.0083333,39.08 22.46,38.9 23,38.9 C23.54,38.9 23.9916667,39.0783333 24.355,39.435 C24.7183333,39.7916667 24.9,40.2266667 24.9,40.74 L24.9,44.25 C24.9,44.7633333 24.7233333,45.2 24.37,45.56 C24.0166667,45.92 23.5766667,46.1 23.05,46.1 Z M23,42.93 C23.3066667,42.93 23.5616667,42.8333333 23.765,42.64 C23.9683333,42.4466667 24.07,42.1933333 24.07,41.88 L24.07,40.73 C24.07,40.4366667 23.9666667,40.19 23.76,39.99 C23.5533333,39.79 23.3,39.69 23,39.69 C22.7066667,39.69 22.4566667,39.7916667 22.25,39.995 C22.0433333,40.1983333 21.94,40.4466667 21.94,40.74 L21.94,41.88 C21.94,42.1866667 22.0416667,42.4383333 22.245,42.635 C22.4483333,42.8316667 22.7,42.93 23,42.93 Z M30.82,40.74 L30.82,44.26 C30.82,44.7733333 30.645,45.2083333 30.295,45.565 C29.945,45.9216667 29.51,46.1 28.99,46.1 C28.47,46.1 28.0383333,45.92 27.695,45.56 C27.3516667,45.2 27.18,44.7633333 27.18,44.25 L27.18,40.74 C27.18,40.2266667 27.3516667,39.7916667 27.695,39.435 C28.0383333,39.0783333 28.47,38.9 28.99,38.9 C29.51,38.9 29.945,39.0783333 30.295,39.435 C30.645,39.7916667 30.82,40.2266667 30.82,40.74 Z M29.99,44.27 L29.99,40.75 C29.99,40.4566667 29.8933333,40.2066667 29.7,40 C29.5066667,39.7933333 29.27,39.69 28.99,39.69 C28.7166667,39.69 28.4833333,39.7933333 28.29,40 C28.0966667,40.2066667 28,40.4566667 28,40.75 L28,44.26 C28,44.5533333 28.0966667,44.8016667 28.29,45.005 C28.4833333,45.2083333 28.72,45.31 29,45.31 C29.2733333,45.31 29.5066667,45.21 29.7,45.01 C29.8933333,44.81 29.99,44.5633333 29.99,44.27 Z M36.82,40.74 L36.82,44.26 C36.82,44.7733333 36.645,45.2083333 36.295,45.565 C35.945,45.9216667 35.51,46.1 34.99,46.1 C34.47,46.1 34.0383333,45.92 33.695,45.56 C33.3516667,45.2 33.18,44.7633333 33.18,44.25 L33.18,40.74 C33.18,40.2266667 33.3516667,39.7916667 33.695,39.435 C34.0383333,39.0783333 34.47,38.9 34.99,38.9 C35.51,38.9 35.945,39.0783333 36.295,39.435 C36.645,39.7916667 36.82,40.2266667 36.82,40.74 Z M35.99,44.27 L35.99,40.75 C35.99,40.4566667 35.8933333,40.2066667 35.7,40 C35.5066667,39.7933333 35.27,39.69 34.99,39.69 C34.7166667,39.69 34.4833333,39.7933333 34.29,40 C34.0966667,40.2066667 34,40.4566667 34,40.75 L34,44.26 C34,44.5533333 34.0966667,44.8016667 34.29,45.005 C34.4833333,45.2083333 34.72,45.31 35,45.31 C35.2733333,45.31 35.5066667,45.21 35.7,45.01 C35.8933333,44.81 35.99,44.5633333 35.99,44.27 Z M43.04,39.25 L40.9,42.3 L43.16,45.75 C43.1933333,45.8033333 43.21,45.8466667 43.21,45.88 C43.21,45.96 43.1533333,46 43.04,46 L42.5,46 C42.4,46 42.31,45.9366667 42.23,45.81 L40,42.35 L40,45.8 C40,45.8533333 39.98,45.9 39.94,45.94 C39.9,45.98 39.8433333,46 39.77,46 L39.39,46 C39.3166667,46 39.26,45.98 39.22,45.94 C39.18,45.9 39.16,45.8533333 39.16,45.8 L39.16,39.2 C39.16,39.1466667 39.18,39.1 39.22,39.06 C39.26,39.02 39.3166667,39 39.39,39 L39.77,39 C39.8433333,39 39.9,39.02 39.94,39.06 C39.98,39.1 40,39.1466667 40,39.2 L40,42.23 L42.1,39.2 C42.1866667,39.0666667 42.28,39 42.38,39 L42.92,39 C43.0333333,39 43.09,39.04 43.09,39.12 C43.09,39.1533333 43.0733333,39.1966667 43.04,39.25 Z" id="900K" fill="#34444C" opacity="0.600000024"></path>
            <path d="M21.39,20.18 L22.52,20 L23.23,20 C23.2766667,20 23.3183333,20.0166667 23.355,20.05 C23.3916667,20.0833333 23.41,20.1266667 23.41,20.18 L23.41,26.23 L24.73,26.23 C24.7766667,26.23 24.8183333,26.2483333 24.855,26.285 C24.8916667,26.3216667 24.91,26.3633333 24.91,26.41 L24.91,26.82 C24.91,26.8733333 24.8916667,26.9166667 24.855,26.95 C24.8183333,26.9833333 24.7766667,27 24.73,27 L21.26,27 C21.2066667,27 21.1633333,26.9833333 21.13,26.95 C21.0966667,26.9166667 21.08,26.8733333 21.08,26.82 L21.08,26.41 C21.08,26.3633333 21.0966667,26.3216667 21.13,26.285 C21.1633333,26.2483333 21.2066667,26.23 21.26,26.23 L22.57,26.23 L22.57,20.79 L21.47,20.96 L21.44,20.96 C21.4133333,20.9666667 21.3833333,20.97 21.35,20.97 C21.2566667,20.97 21.21,20.91 21.21,20.79 L21.21,20.37 C21.21,20.27 21.27,20.2066667 21.39,20.18 Z M29.51,26.25 L29.51,26.74 C29.51,26.8466667 29.5,26.9333333 29.48,27 L29.13,28.02 C29.0966667,28.12 29.0333333,28.17 28.94,28.17 L28.65,28.17 C28.5766667,28.17 28.54,28.1333333 28.54,28.06 C28.54,28.0333333 28.5466667,28 28.56,27.96 L28.84,27 L28.75,27 C28.5766667,27 28.49,26.9133333 28.49,26.74 L28.49,26.25 C28.49,26.0766667 28.5766667,25.99 28.75,25.99 L29.25,25.99 C29.4233333,25.99 29.51,26.0766667 29.51,26.25 Z M33.17,21.7 C33.17,21.2533333 33.3533333,20.8416667 33.72,20.465 C34.0866667,20.0883333 34.5333333,19.9 35.06,19.9 C35.58,19.9 36.02,20.075 36.38,20.425 C36.74,20.775 36.92,21.21 36.92,21.73 C36.92,22.1166667 36.8166667,22.4816667 36.61,22.825 C36.4033333,23.1683333 36.1533333,23.465 35.86,23.715 C35.5666667,23.965 35.2733333,24.2116667 34.98,24.455 C34.6866667,24.6983333 34.4366667,24.97 34.23,25.27 C34.0233333,25.57 33.92,25.8866667 33.92,26.22 L36.74,26.22 C36.7933333,26.22 36.8366667,26.2366667 36.87,26.27 C36.9033333,26.3033333 36.92,26.3466667 36.92,26.4 L36.92,26.82 C36.92,26.8733333 36.9033333,26.9166667 36.87,26.95 C36.8366667,26.9833333 36.7933333,27 36.74,27 L33.26,27 C33.2066667,27 33.1633333,26.9833333 33.13,26.95 C33.0966667,26.9166667 33.08,26.8733333 33.08,26.82 L33.08,26.27 C33.08,25.83 33.1833333,25.425 33.39,25.055 C33.5966667,24.685 33.8466667,24.37 34.14,24.11 C34.4333333,23.85 34.7266667,23.6 35.02,23.36 C35.3133333,23.12 35.5633333,22.8566667 35.77,22.57 C35.9766667,22.2833333 36.08,21.9833333 36.08,21.67 C36.08,21.3966667 35.9783333,21.165 35.775,20.975 C35.5716667,20.785 35.33,20.69 35.05,20.69 C34.7566667,20.69 34.5133333,20.8033333 34.32,21.03 C34.1266667,21.2566667 34.0233333,21.48 34.01,21.7 C33.9966667,21.8333333 33.92,21.9 33.78,21.9 L33.4,21.9 C33.3266667,21.9 33.27,21.88 33.23,21.84 C33.19,21.8 33.17,21.7533333 33.17,21.7 Z M42.05,21.89 L41.45,23.49 C41.3966667,23.6233333 41.32,23.69 41.22,23.69 L40.78,23.69 C40.68,23.69 40.6033333,23.6233333 40.55,23.49 L39.95,21.9 L39.78,21.18 L39.72,21.19 L39.8,22.36 L39.8,26.8 C39.8,26.8533333 39.78,26.9 39.74,26.94 C39.7,26.98 39.6433333,27 39.57,27 L39.19,27 C39.1166667,27 39.06,26.98 39.02,26.94 C38.98,26.9 38.96,26.8533333 38.96,26.8 L38.96,20.2 C38.96,20.1466667 38.98,20.1 39.02,20.06 C39.06,20.02 39.1166667,20 39.19,20 L39.89,20 C40.0033333,20 40.08,20.0666667 40.12,20.2 L40.98,22.84 L41.02,22.84 L41.88,20.2 C41.92,20.0666667 41.9966667,20 42.11,20 L42.81,20 C42.8833333,20 42.94,20.02 42.98,20.06 C43.02,20.1 43.04,20.1466667 43.04,20.2 L43.04,26.8 C43.04,26.8533333 43.02,26.9 42.98,26.94 C42.94,26.98 42.8833333,27 42.81,27 L42.43,27 C42.3566667,27 42.3,26.98 42.26,26.94 C42.22,26.9 42.2,26.8533333 42.2,26.8 L42.2,22.36 L42.28,21.19 L42.22,21.18 L42.05,21.89 Z" id="1,2M" fill="#34444C" opacity="0.600000024"></path>
            <path d="M5.412,0.52 L5.412,7.78 C5.412,7.83866661 5.39,7.89 5.346,7.934 C5.302,7.978 5.23966661,8 5.159,8 L4.741,8 C4.66033339,8 4.598,7.978 4.554,7.934 C4.51,7.89 4.488,7.83866661 4.488,7.78 L4.488,4.37 L2.101,4.37 L2.101,7.78 C2.101,7.83866661 2.079,7.89 2.035,7.934 C1.991,7.978 1.92866661,8 1.848,8 L1.43,8 C1.34933339,8 1.287,7.978 1.243,7.934 C1.199,7.89 1.177,7.83866661 1.177,7.78 L1.177,0.52 C1.177,0.461333389 1.199,0.41 1.243,0.366 C1.287,0.322 1.34933339,0.3 1.43,0.3 L1.848,0.3 C1.92866661,0.3 1.991,0.322 2.035,0.366 C2.079,0.41 2.101,0.461333389 2.101,0.52 L2.101,3.512 L4.488,3.512 L4.488,0.52 C4.488,0.461333389 4.51,0.41 4.554,0.366 C4.598,0.322 4.66033339,0.3 4.741,0.3 L5.159,0.3 C5.23966661,0.3 5.302,0.322 5.346,0.366 C5.39,0.41 5.412,0.461333389 5.412,0.52 Z M11.605,8 L8.228,8 C8.14733339,8 8.085,7.978 8.041,7.934 C7.997,7.89 7.975,7.83866661 7.975,7.78 L7.975,0.52 C7.975,0.461333389 7.997,0.41 8.041,0.366 C8.085,0.322 8.14733339,0.3 8.228,0.3 L11.517,0.3 C11.5756666,0.3 11.627,0.322 11.671,0.366 C11.715,0.41 11.737,0.472333389 11.737,0.553 L11.737,0.916 C11.737,0.996666611 11.715,1.059 11.671,1.103 C11.627,1.147 11.5756666,1.169 11.517,1.169 L8.899,1.169 L8.899,3.512 L11.253,3.512 C11.3116666,3.512 11.363,3.534 11.407,3.578 C11.451,3.622 11.473,3.68433339 11.473,3.765 L11.473,4.117 C11.473,4.19766661 11.451,4.26 11.407,4.304 C11.363,4.348 11.3116666,4.37 11.253,4.37 L8.899,4.37 L8.899,7.131 L11.605,7.131 C11.6636666,7.131 11.715,7.153 11.759,7.197 C11.803,7.241 11.825,7.30333339 11.825,7.384 L11.825,7.747 C11.825,7.82766661 11.803,7.89 11.759,7.934 C11.715,7.978 11.6636666,8 11.605,8 Z M18.711,6.086 C18.711,6.65066661 18.5093334,7.12916661 18.106,7.5215 C17.7026666,7.91383339 17.204,8.11 16.61,8.11 C16.0086666,8.11 15.5045,7.912 15.0975,7.516 C14.6905,7.12 14.487,6.63966661 14.487,6.075 L14.487,2.214 C14.487,1.64933339 14.6905,1.17083339 15.0975,0.7785 C15.5045,0.386166611 16.0086666,0.19 16.61,0.19 C17.2333334,0.19 17.7356666,0.389833389 18.117,0.7895 C18.4983334,1.18916661 18.689,1.59433339 18.689,2.005 C18.689,2.06366661 18.667,2.115 18.623,2.159 C18.579,2.203 18.5166666,2.225 18.436,2.225 L18.018,2.225 C17.864,2.225 17.7796666,2.15166661 17.765,2.005 C17.743,1.785 17.622,1.57233339 17.402,1.367 C17.182,1.16166661 16.918,1.059 16.61,1.059 C16.2726666,1.059 15.9903334,1.169 15.763,1.389 C15.5356666,1.609 15.422,1.88033339 15.422,2.203 L15.422,6.086 C15.422,6.40866661 15.5356666,6.68183339 15.763,6.9055 C15.9903334,7.12916661 16.2726666,7.241 16.61,7.241 C16.9326666,7.241 17.2095,7.12916661 17.4405,6.9055 C17.6715,6.68183339 17.787,6.40866661 17.787,6.086 C17.787,6.02733339 17.809,5.976 17.853,5.932 C17.897,5.888 17.9593334,5.866 18.04,5.866 L18.458,5.866 C18.5386666,5.866 18.601,5.888 18.645,5.932 C18.689,5.976 18.711,6.02733339 18.711,6.086 Z M23.562,1.169 L23.562,7.78 C23.562,7.83866661 23.54,7.89 23.496,7.934 C23.452,7.978 23.3896666,8 23.309,8 L22.891,8 C22.8103334,8 22.748,7.978 22.704,7.934 C22.66,7.89 22.638,7.83866661 22.638,7.78 L22.638,1.169 L21.197,1.169 C21.1383334,1.169 21.087,1.147 21.043,1.103 C20.999,1.059 20.977,0.996666611 20.977,0.916 L20.977,0.553 C20.977,0.472333389 20.999,0.41 21.043,0.366 C21.087,0.322 21.1383334,0.3 21.197,0.3 L25.003,0.3 C25.0616666,0.3 25.113,0.322 25.157,0.366 C25.201,0.41 25.223,0.472333389 25.223,0.553 L25.223,0.916 C25.223,0.996666611 25.201,1.059 25.157,1.103 C25.113,1.147 25.0616666,1.169 25.003,1.169 L23.562,1.169 Z M30.855,4.689 L29.799,1.169 L29.59,1.169 L28.545,4.689 L30.855,4.689 Z M30.547,0.52 L31.746,4.502 C31.79,4.634 31.812,4.766 31.812,4.898 L31.812,7.78 C31.812,7.83866661 31.79,7.89 31.746,7.934 C31.702,7.978 31.6396666,8 31.559,8 L31.141,8 C31.0603334,8 30.998,7.978 30.954,7.934 C30.91,7.89 30.888,7.83866661 30.888,7.78 L30.888,5.547 L28.501,5.547 L28.501,7.78 C28.501,7.83866661 28.479,7.89 28.435,7.934 C28.391,7.978 28.3286666,8 28.248,8 L27.83,8 C27.7493334,8 27.687,7.978 27.643,7.934 C27.599,7.89 27.577,7.83866661 27.577,7.78 L27.577,4.898 C27.577,4.766 27.599,4.63033339 27.643,4.491 L28.842,0.52 C28.886,0.373333389 28.974,0.3 29.106,0.3 L30.283,0.3 C30.415,0.3 30.503,0.373333389 30.547,0.52 Z M37.158,5.041 L38.302,7.725 C38.3313334,7.79833339 38.346,7.846 38.346,7.868 C38.346,7.956 38.2836666,8 38.159,8 L37.62,8 C37.4806666,8 37.3816666,7.93033339 37.323,7.791 L36.245,5.195 L35.222,5.195 L35.222,7.78 C35.222,7.83866661 35.2,7.89 35.156,7.934 C35.112,7.978 35.0496666,8 34.969,8 L34.551,8 C34.4703334,8 34.408,7.978 34.364,7.934 C34.32,7.89 34.298,7.83866661 34.298,7.78 L34.298,0.52 C34.298,0.461333389 34.32,0.41 34.364,0.366 C34.408,0.322 34.4703334,0.3 34.551,0.3 L36.399,0.3 C36.8903334,0.3 37.3065,0.466833389 37.6475,0.8005 C37.9885,1.13416661 38.159,1.53933339 38.159,2.016 L38.159,3.479 C38.159,3.831 38.071,4.1445 37.895,4.4195 C37.719,4.6945 37.4733334,4.90166661 37.158,5.041 Z M37.224,3.512 L37.224,2.005 C37.224,1.77766661 37.1396666,1.5815 36.971,1.4165 C36.8023334,1.2515 36.6006666,1.169 36.366,1.169 L35.222,1.169 L35.222,4.337 L36.366,4.337 C36.6006666,4.337 36.8023334,4.25633339 36.971,4.095 C37.1396666,3.93366661 37.224,3.73933339 37.224,3.512 Z M44.605,8 L41.228,8 C41.1473334,8 41.085,7.978 41.041,7.934 C40.997,7.89 40.975,7.83866661 40.975,7.78 L40.975,0.52 C40.975,0.461333389 40.997,0.41 41.041,0.366 C41.085,0.322 41.1473334,0.3 41.228,0.3 L44.517,0.3 C44.5756666,0.3 44.627,0.322 44.671,0.366 C44.715,0.41 44.737,0.472333389 44.737,0.553 L44.737,0.916 C44.737,0.996666611 44.715,1.059 44.671,1.103 C44.627,1.147 44.5756666,1.169 44.517,1.169 L41.899,1.169 L41.899,3.512 L44.253,3.512 C44.3116666,3.512 44.363,3.534 44.407,3.578 C44.451,3.622 44.473,3.68433339 44.473,3.765 L44.473,4.117 C44.473,4.19766661 44.451,4.26 44.407,4.304 C44.363,4.348 44.3116666,4.37 44.253,4.37 L41.899,4.37 L41.899,7.131 L44.605,7.131 C44.6636666,7.131 44.715,7.153 44.759,7.197 C44.803,7.241 44.825,7.30333339 44.825,7.384 L44.825,7.747 C44.825,7.82766661 44.803,7.89 44.759,7.934 C44.715,7.978 44.6636666,8 44.605,8 Z M49.5,8.11 C48.818,8.11 48.2826666,7.90833339 47.894,7.505 C47.5053334,7.10166661 47.311,6.603 47.311,6.009 C47.311,5.95033339 47.333,5.899 47.377,5.855 C47.421,5.811 47.4833334,5.789 47.564,5.789 L47.982,5.789 C48.0626666,5.789 48.125,5.811 48.169,5.855 C48.213,5.899 48.235,5.95033339 48.235,6.009 C48.235,6.361 48.3468334,6.65433339 48.5705,6.889 C48.7941666,7.12366661 49.104,7.241 49.5,7.241 C49.8666666,7.241 50.1636666,7.1365 50.391,6.9275 C50.6183334,6.7185 50.732,6.46733339 50.732,6.174 C50.732,5.8 50.6183334,5.48283339 50.391,5.2225 C50.1636666,4.96216661 49.8886666,4.7495 49.566,4.5845 C49.2433334,4.4195 48.9188334,4.24716661 48.5925,4.0675 C48.2661666,3.88783339 47.9893334,3.64216661 47.762,3.3305 C47.5346666,3.01883339 47.421,2.643 47.421,2.203 C47.421,1.631 47.6245,1.1525 48.0315,0.7675 C48.4385,0.3825 48.9316666,0.19 49.511,0.19 C50.127,0.19 50.6256666,0.391666611 51.007,0.795 C51.3883334,1.19833339 51.579,1.60533339 51.579,2.016 C51.579,2.07466661 51.557,2.126 51.513,2.17 C51.469,2.214 51.4066666,2.236 51.326,2.236 L50.908,2.236 C50.754,2.236 50.6696666,2.16266661 50.655,2.016 C50.633,1.796 50.5138334,1.58516661 50.2975,1.3835 C50.0811666,1.18183339 49.819,1.081 49.511,1.081 C49.1883334,1.081 48.9151666,1.18366661 48.6915,1.389 C48.4678334,1.59433339 48.356,1.84733339 48.356,2.148 C48.356,2.44133339 48.4696666,2.69616661 48.697,2.9125 C48.9243334,3.12883339 49.2011666,3.3195 49.5275,3.4845 C49.8538334,3.6495 50.1801666,3.82916661 50.5065,4.0235 C50.8328334,4.21783339 51.1096666,4.48916661 51.337,4.8375 C51.5643334,5.18583339 51.678,5.602 51.678,6.086 C51.678,6.62133339 51.4818334,7.0925 51.0895,7.4995 C50.6971666,7.9065 50.1673334,8.11 49.5,8.11 Z" id="HECTARES" fill="#34444C" opacity="0.600000024"></path>
            <path d="M10,62 L16,62" id="Shape" stroke="#34444C" opacity="0.300000012" stroke-linejoin="round"></path>
            <path d="M10,43 L16,43" id="Shape" stroke="#34444C" opacity="0.300000012" stroke-linejoin="round"></path>
            <path d="M10,24 L16,24" id="Shape" stroke="#34444C" opacity="0.300000012" stroke-linejoin="round"></path>
            <path d="M10,81 L16,81" id="Shape" stroke="#34444C" opacity="0.300000012" stroke-linejoin="round"></path>
        </g>
    </g>
</svg>
