<?xml version="1.0" encoding="UTF-8"?>
<svg width="42px" height="81px" viewBox="0 0 42 81" version="1.1" xmlns="http://www.w3.org/2000/svg" xmlns:xlink="http://www.w3.org/1999/xlink">
    <!-- Generator: Sketch 50.2 (55047) - http://www.bohemiancoding.com/sketch -->
    <title>5</title>
    <desc>Created with Sketch.</desc>
    <defs>
        <linearGradient x1="50%" y1="100%" x2="50%" y2="3.061617e-15%" id="linearGradient-1">
            <stop stop-color="#FDFED0" offset="0%"></stop>
            <stop stop-color="#FB8E64" offset="24.8519814%"></stop>
            <stop stop-color="#BA3877" offset="49.0804616%"></stop>
            <stop stop-color="#54137C" offset="72.607559%"></stop>
            <stop stop-color="#000004" offset="100%"></stop>
        </linearGradient>
    </defs>
    <g id="Page-1" stroke="none" stroke-width="1" fill="none" fill-rule="evenodd">
        <g id="5">
            <rect id="Rectangle-3" fill="url(#linearGradient-1)" x="0" y="1" width="10" height="80"></rect>
            <path d="M22.19,61.44 C22.1366667,61.52 22.0666667,61.56 21.98,61.56 C21.9533333,61.56 21.9,61.5466667 21.82,61.52 L21.48,61.42 C21.3733333,61.3866667 21.3266667,61.2966667 21.34,61.15 L21.59,58.23 C21.6033333,58.0766667 21.6766667,58 21.81,58 L24.44,58 C24.5866667,58 24.66,58.0766667 24.66,58.23 L24.66,58.56 C24.66,58.7133333 24.5866667,58.79 24.44,58.79 L22.41,58.79 L22.24,60.52 C22.4266667,60.36 22.7033333,60.28 23.07,60.28 C23.5833333,60.28 24.0166667,60.4533333 24.37,60.8 C24.7233333,61.1466667 24.9,61.5833333 24.9,62.11 L24.9,63.25 C24.9,63.7633333 24.7166667,64.2 24.35,64.56 C23.9833333,64.92 23.5366667,65.1 23.01,65.1 C22.4633333,65.1 22.0083333,64.9216667 21.645,64.565 C21.2816667,64.2083333 21.1,63.7733333 21.1,63.26 C21.1,63.2066667 21.12,63.16 21.16,63.12 C21.2,63.08 21.2566667,63.06 21.33,63.06 L21.71,63.06 C21.7833333,63.06 21.84,63.08 21.88,63.12 C21.92,63.16 21.94,63.2066667 21.94,63.26 C21.94,63.5533333 22.0433333,63.8016667 22.25,64.005 C22.4566667,64.2083333 22.71,64.31 23.01,64.31 C23.3033333,64.31 23.5516667,64.2083333 23.755,64.005 C23.9583333,63.8016667 24.06,63.5533333 24.06,63.26 L24.06,62.12 C24.06,61.8266667 23.9566667,61.5783333 23.75,61.375 C23.5433333,61.1716667 23.2866667,61.07 22.98,61.07 C22.84,61.07 22.7066667,61.0983333 22.58,61.155 C22.4533333,61.2116667 22.3633333,61.2633333 22.31,61.31 C22.2566667,61.3566667 22.2166667,61.4 22.19,61.44 Z M30.32,59.74 L30.32,63.26 C30.32,63.7733333 30.145,64.2083333 29.795,64.565 C29.445,64.9216667 29.01,65.1 28.49,65.1 C27.97,65.1 27.5383333,64.92 27.195,64.56 C26.8516667,64.2 26.68,63.7633333 26.68,63.25 L26.68,59.74 C26.68,59.2266667 26.8516667,58.7916667 27.195,58.435 C27.5383333,58.0783333 27.97,57.9 28.49,57.9 C29.01,57.9 29.445,58.0783333 29.795,58.435 C30.145,58.7916667 30.32,59.2266667 30.32,59.74 Z M29.49,63.27 L29.49,59.75 C29.49,59.4566667 29.3933333,59.2066667 29.2,59 C29.0066667,58.7933333 28.77,58.69 28.49,58.69 C28.2166667,58.69 27.9833333,58.7933333 27.79,59 C27.5966667,59.2066667 27.5,59.4566667 27.5,59.75 L27.5,63.26 C27.5,63.5533333 27.5966667,63.8016667 27.79,64.005 C27.9833333,64.2083333 28.22,64.31 28.5,64.31 C28.7733333,64.31 29.0066667,64.21 29.2,64.01 C29.3933333,63.81 29.49,63.5633333 29.49,63.27 Z M36.04,58.25 L33.9,61.3 L36.16,64.75 C36.1933333,64.8033333 36.21,64.8466667 36.21,64.88 C36.21,64.96 36.1533333,65 36.04,65 L35.5,65 C35.4,65 35.31,64.9366667 35.23,64.81 L33,61.35 L33,64.8 C33,64.8533333 32.98,64.9 32.94,64.94 C32.9,64.98 32.8433333,65 32.77,65 L32.39,65 C32.3166667,65 32.26,64.98 32.22,64.94 C32.18,64.9 32.16,64.8533333 32.16,64.8 L32.16,58.2 C32.16,58.1466667 32.18,58.1 32.22,58.06 C32.26,58.02 32.3166667,58 32.39,58 L32.77,58 C32.8433333,58 32.9,58.02 32.94,58.06 C32.98,58.1 33,58.1466667 33,58.2 L33,61.23 L35.1,58.2 C35.1866667,58.0666667 35.28,58 35.38,58 L35.92,58 C36.0333333,58 36.09,58.04 36.09,58.12 C36.09,58.1533333 36.0733333,58.1966667 36.04,58.25 Z" id="50K" fill="#34444C" opacity="0.600000024"></path>
            <path d="M21.39,39.18 L22.52,39 L23.23,39 C23.2766667,39 23.3183333,39.0166667 23.355,39.05 C23.3916667,39.0833333 23.41,39.1266667 23.41,39.18 L23.41,45.23 L24.73,45.23 C24.7766667,45.23 24.8183333,45.2483333 24.855,45.285 C24.8916667,45.3216667 24.91,45.3633333 24.91,45.41 L24.91,45.82 C24.91,45.8733333 24.8916667,45.9166667 24.855,45.95 C24.8183333,45.9833333 24.7766667,46 24.73,46 L21.26,46 C21.2066667,46 21.1633333,45.9833333 21.13,45.95 C21.0966667,45.9166667 21.08,45.8733333 21.08,45.82 L21.08,45.41 C21.08,45.3633333 21.0966667,45.3216667 21.13,45.285 C21.1633333,45.2483333 21.2066667,45.23 21.26,45.23 L22.57,45.23 L22.57,39.79 L21.47,39.96 L21.44,39.96 C21.4133333,39.9666667 21.3833333,39.97 21.35,39.97 C21.2566667,39.97 21.21,39.91 21.21,39.79 L21.21,39.37 C21.21,39.27 21.27,39.2066667 21.39,39.18 Z M30.32,40.74 L30.32,44.26 C30.32,44.7733333 30.145,45.2083333 29.795,45.565 C29.445,45.9216667 29.01,46.1 28.49,46.1 C27.97,46.1 27.5383333,45.92 27.195,45.56 C26.8516667,45.2 26.68,44.7633333 26.68,44.25 L26.68,40.74 C26.68,40.2266667 26.8516667,39.7916667 27.195,39.435 C27.5383333,39.0783333 27.97,38.9 28.49,38.9 C29.01,38.9 29.445,39.0783333 29.795,39.435 C30.145,39.7916667 30.32,40.2266667 30.32,40.74 Z M29.49,44.27 L29.49,40.75 C29.49,40.4566667 29.3933333,40.2066667 29.2,40 C29.0066667,39.7933333 28.77,39.69 28.49,39.69 C28.2166667,39.69 27.9833333,39.7933333 27.79,40 C27.5966667,40.2066667 27.5,40.4566667 27.5,40.75 L27.5,44.26 C27.5,44.5533333 27.5966667,44.8016667 27.79,45.005 C27.9833333,45.2083333 28.22,45.31 28.5,45.31 C28.7733333,45.31 29.0066667,45.21 29.2,45.01 C29.3933333,44.81 29.49,44.5633333 29.49,44.27 Z M35.82,40.74 L35.82,44.26 C35.82,44.7733333 35.645,45.2083333 35.295,45.565 C34.945,45.9216667 34.51,46.1 33.99,46.1 C33.47,46.1 33.0383333,45.92 32.695,45.56 C32.3516667,45.2 32.18,44.7633333 32.18,44.25 L32.18,40.74 C32.18,40.2266667 32.3516667,39.7916667 32.695,39.435 C33.0383333,39.0783333 33.47,38.9 33.99,38.9 C34.51,38.9 34.945,39.0783333 35.295,39.435 C35.645,39.7916667 35.82,40.2266667 35.82,40.74 Z M34.99,44.27 L34.99,40.75 C34.99,40.4566667 34.8933333,40.2066667 34.7,40 C34.5066667,39.7933333 34.27,39.69 33.99,39.69 C33.7166667,39.69 33.4833333,39.7933333 33.29,40 C33.0966667,40.2066667 33,40.4566667 33,40.75 L33,44.26 C33,44.5533333 33.0966667,44.8016667 33.29,45.005 C33.4833333,45.2083333 33.72,45.31 34,45.31 C34.2733333,45.31 34.5066667,45.21 34.7,45.01 C34.8933333,44.81 34.99,44.5633333 34.99,44.27 Z M41.54,39.25 L39.4,42.3 L41.66,45.75 C41.6933333,45.8033333 41.71,45.8466667 41.71,45.88 C41.71,45.96 41.6533333,46 41.54,46 L41,46 C40.9,46 40.81,45.9366667 40.73,45.81 L38.5,42.35 L38.5,45.8 C38.5,45.8533333 38.48,45.9 38.44,45.94 C38.4,45.98 38.3433333,46 38.27,46 L37.89,46 C37.8166667,46 37.76,45.98 37.72,45.94 C37.68,45.9 37.66,45.8533333 37.66,45.8 L37.66,39.2 C37.66,39.1466667 37.68,39.1 37.72,39.06 C37.76,39.02 37.8166667,39 37.89,39 L38.27,39 C38.3433333,39 38.4,39.02 38.44,39.06 C38.48,39.1 38.5,39.1466667 38.5,39.2 L38.5,42.23 L40.6,39.2 C40.6866667,39.0666667 40.78,39 40.88,39 L41.42,39 C41.5333333,39 41.59,39.04 41.59,39.12 C41.59,39.1533333 41.5733333,39.1966667 41.54,39.25 Z" id="100K" fill="#34444C" opacity="0.600000024"></path>
            <path d="M21.17,21.7 C21.17,21.2533333 21.3533333,20.8416667 21.72,20.465 C22.0866667,20.0883333 22.5333333,19.9 23.06,19.9 C23.58,19.9 24.02,20.075 24.38,20.425 C24.74,20.775 24.92,21.21 24.92,21.73 C24.92,22.1166667 24.8166667,22.4816667 24.61,22.825 C24.4033333,23.1683333 24.1533333,23.465 23.86,23.715 C23.5666667,23.965 23.2733333,24.2116667 22.98,24.455 C22.6866667,24.6983333 22.4366667,24.97 22.23,25.27 C22.0233333,25.57 21.92,25.8866667 21.92,26.22 L24.74,26.22 C24.7933333,26.22 24.8366667,26.2366667 24.87,26.27 C24.9033333,26.3033333 24.92,26.3466667 24.92,26.4 L24.92,26.82 C24.92,26.8733333 24.9033333,26.9166667 24.87,26.95 C24.8366667,26.9833333 24.7933333,27 24.74,27 L21.26,27 C21.2066667,27 21.1633333,26.9833333 21.13,26.95 C21.0966667,26.9166667 21.08,26.8733333 21.08,26.82 L21.08,26.27 C21.08,25.83 21.1833333,25.425 21.39,25.055 C21.5966667,24.685 21.8466667,24.37 22.14,24.11 C22.4333333,23.85 22.7266667,23.6 23.02,23.36 C23.3133333,23.12 23.5633333,22.8566667 23.77,22.57 C23.9766667,22.2833333 24.08,21.9833333 24.08,21.67 C24.08,21.3966667 23.9783333,21.165 23.775,20.975 C23.5716667,20.785 23.33,20.69 23.05,20.69 C22.7566667,20.69 22.5133333,20.8033333 22.32,21.03 C22.1266667,21.2566667 22.0233333,21.48 22.01,21.7 C21.9966667,21.8333333 21.92,21.9 21.78,21.9 L21.4,21.9 C21.3266667,21.9 21.27,21.88 21.23,21.84 C21.19,21.8 21.17,21.7533333 21.17,21.7 Z M30.32,21.74 L30.32,25.26 C30.32,25.7733333 30.145,26.2083333 29.795,26.565 C29.445,26.9216667 29.01,27.1 28.49,27.1 C27.97,27.1 27.5383333,26.92 27.195,26.56 C26.8516667,26.2 26.68,25.7633333 26.68,25.25 L26.68,21.74 C26.68,21.2266667 26.8516667,20.7916667 27.195,20.435 C27.5383333,20.0783333 27.97,19.9 28.49,19.9 C29.01,19.9 29.445,20.0783333 29.795,20.435 C30.145,20.7916667 30.32,21.2266667 30.32,21.74 Z M29.49,25.27 L29.49,21.75 C29.49,21.4566667 29.3933333,21.2066667 29.2,21 C29.0066667,20.7933333 28.77,20.69 28.49,20.69 C28.2166667,20.69 27.9833333,20.7933333 27.79,21 C27.5966667,21.2066667 27.5,21.4566667 27.5,21.75 L27.5,25.26 C27.5,25.5533333 27.5966667,25.8016667 27.79,26.005 C27.9833333,26.2083333 28.22,26.31 28.5,26.31 C28.7733333,26.31 29.0066667,26.21 29.2,26.01 C29.3933333,25.81 29.49,25.5633333 29.49,25.27 Z M35.82,21.74 L35.82,25.26 C35.82,25.7733333 35.645,26.2083333 35.295,26.565 C34.945,26.9216667 34.51,27.1 33.99,27.1 C33.47,27.1 33.0383333,26.92 32.695,26.56 C32.3516667,26.2 32.18,25.7633333 32.18,25.25 L32.18,21.74 C32.18,21.2266667 32.3516667,20.7916667 32.695,20.435 C33.0383333,20.0783333 33.47,19.9 33.99,19.9 C34.51,19.9 34.945,20.0783333 35.295,20.435 C35.645,20.7916667 35.82,21.2266667 35.82,21.74 Z M34.99,25.27 L34.99,21.75 C34.99,21.4566667 34.8933333,21.2066667 34.7,21 C34.5066667,20.7933333 34.27,20.69 33.99,20.69 C33.7166667,20.69 33.4833333,20.7933333 33.29,21 C33.0966667,21.2066667 33,21.4566667 33,21.75 L33,25.26 C33,25.5533333 33.0966667,25.8016667 33.29,26.005 C33.4833333,26.2083333 33.72,26.31 34,26.31 C34.2733333,26.31 34.5066667,26.21 34.7,26.01 C34.8933333,25.81 34.99,25.5633333 34.99,25.27 Z M41.54,20.25 L39.4,23.3 L41.66,26.75 C41.6933333,26.8033333 41.71,26.8466667 41.71,26.88 C41.71,26.96 41.6533333,27 41.54,27 L41,27 C40.9,27 40.81,26.9366667 40.73,26.81 L38.5,23.35 L38.5,26.8 C38.5,26.8533333 38.48,26.9 38.44,26.94 C38.4,26.98 38.3433333,27 38.27,27 L37.89,27 C37.8166667,27 37.76,26.98 37.72,26.94 C37.68,26.9 37.66,26.8533333 37.66,26.8 L37.66,20.2 C37.66,20.1466667 37.68,20.1 37.72,20.06 C37.76,20.02 37.8166667,20 37.89,20 L38.27,20 C38.3433333,20 38.4,20.02 38.44,20.06 C38.48,20.1 38.5,20.1466667 38.5,20.2 L38.5,23.23 L40.6,20.2 C40.6866667,20.0666667 40.78,20 40.88,20 L41.42,20 C41.5333333,20 41.59,20.04 41.59,20.12 C41.59,20.1533333 41.5733333,20.1966667 41.54,20.25 Z" id="200K" fill="#34444C" opacity="0.600000024"></path>
            <path d="M24.01,1.25 L21.95,5.71 L23.58,5.71 L23.58,4.11 C23.58,4.05666672 23.6,4.01 23.64,3.97 C23.68,3.93 23.7366667,3.91 23.81,3.91 L24.22,3.91 C24.2733333,3.91 24.32,3.93166672 24.36,3.975 C24.4,4.01833328 24.42,4.06333328 24.42,4.11 L24.42,5.71 L24.8,5.71 C24.8533333,5.71 24.9,5.73 24.94,5.77 C24.98,5.81 25,5.86666672 25,5.94 L25,6.26 C25,6.33333328 24.98,6.39 24.94,6.43 C24.9,6.47 24.8533333,6.49 24.8,6.49 L24.42,6.49 L24.42,7.8 C24.42,7.85333328 24.4,7.9 24.36,7.94 C24.32,7.98 24.2733333,8 24.22,8 L23.81,8 C23.7366667,8 23.68,7.98 23.64,7.94 C23.6,7.9 23.58,7.85333328 23.58,7.8 L23.58,6.49 L21.21,6.49 C21.0633333,6.49 20.99,6.41333328 20.99,6.26 L20.99,5.87 C20.99,5.79 21.0266667,5.67666672 21.1,5.53 L23.13,1.2 C23.1966667,1.06666672 23.2866667,1 23.4,1 L23.88,1 C23.9933333,1 24.05,1.04 24.05,1.12 C24.05,1.14 24.0366667,1.18333328 24.01,1.25 Z M30.32,2.74 L30.32,6.26 C30.32,6.77333328 30.145,7.20833328 29.795,7.565 C29.445,7.92166672 29.01,8.1 28.49,8.1 C27.97,8.1 27.5383333,7.92 27.195,7.56 C26.8516667,7.2 26.68,6.76333328 26.68,6.25 L26.68,2.74 C26.68,2.22666672 26.8516667,1.79166672 27.195,1.435 C27.5383333,1.07833328 27.97,0.9 28.49,0.9 C29.01,0.9 29.445,1.07833328 29.795,1.435 C30.145,1.79166672 30.32,2.22666672 30.32,2.74 Z M29.49,6.27 L29.49,2.75 C29.49,2.45666672 29.3933333,2.20666672 29.2,2 C29.0066667,1.79333328 28.77,1.69 28.49,1.69 C28.2166667,1.69 27.9833333,1.79333328 27.79,2 C27.5966667,2.20666672 27.5,2.45666672 27.5,2.75 L27.5,6.26 C27.5,6.55333328 27.5966667,6.80166672 27.79,7.005 C27.9833333,7.20833328 28.22,7.31 28.5,7.31 C28.7733333,7.31 29.0066667,7.21 29.2,7.01 C29.3933333,6.81 29.49,6.56333328 29.49,6.27 Z M35.82,2.74 L35.82,6.26 C35.82,6.77333328 35.645,7.20833328 35.295,7.565 C34.945,7.92166672 34.51,8.1 33.99,8.1 C33.47,8.1 33.0383333,7.92 32.695,7.56 C32.3516667,7.2 32.18,6.76333328 32.18,6.25 L32.18,2.74 C32.18,2.22666672 32.3516667,1.79166672 32.695,1.435 C33.0383333,1.07833328 33.47,0.9 33.99,0.9 C34.51,0.9 34.945,1.07833328 35.295,1.435 C35.645,1.79166672 35.82,2.22666672 35.82,2.74 Z M34.99,6.27 L34.99,2.75 C34.99,2.45666672 34.8933333,2.20666672 34.7,2 C34.5066667,1.79333328 34.27,1.69 33.99,1.69 C33.7166667,1.69 33.4833333,1.79333328 33.29,2 C33.0966667,2.20666672 33,2.45666672 33,2.75 L33,6.26 C33,6.55333328 33.0966667,6.80166672 33.29,7.005 C33.4833333,7.20833328 33.72,7.31 34,7.31 C34.2733333,7.31 34.5066667,7.21 34.7,7.01 C34.8933333,6.81 34.99,6.56333328 34.99,6.27 Z M41.54,1.25 L39.4,4.3 L41.66,7.75 C41.6933333,7.80333328 41.71,7.84666672 41.71,7.88 C41.71,7.96 41.6533333,8 41.54,8 L41,8 C40.9,8 40.81,7.93666672 40.73,7.81 L38.5,4.35 L38.5,7.8 C38.5,7.85333328 38.48,7.9 38.44,7.94 C38.4,7.98 38.3433333,8 38.27,8 L37.89,8 C37.8166667,8 37.76,7.98 37.72,7.94 C37.68,7.9 37.66,7.85333328 37.66,7.8 L37.66,1.2 C37.66,1.14666672 37.68,1.1 37.72,1.06 C37.76,1.02 37.8166667,1 37.89,1 L38.27,1 C38.3433333,1 38.4,1.02 38.44,1.06 C38.48,1.1 38.5,1.14666672 38.5,1.2 L38.5,4.23 L40.6,1.2 C40.6866667,1.06666672 40.78,1 40.88,1 L41.42,1 C41.5333333,1 41.59,1.04 41.59,1.12 C41.59,1.15333328 41.5733333,1.19666672 41.54,1.25 Z" id="400K" fill="#34444C" opacity="0.600000024"></path>
            <path d="M10,43 L16,43" id="Shape" stroke="#34444C" opacity="0.300000012" stroke-linejoin="round"></path>
            <path d="M10,24 L16,24" id="Shape" stroke="#34444C" opacity="0.300000012" stroke-linejoin="round"></path>
            <path d="M10,5 L16,5" id="Shape" stroke="#34444C" opacity="0.300000012" stroke-linejoin="round"></path>
            <path d="M10,62 L16,62" id="Shape" stroke="#34444C" opacity="0.300000012" stroke-linejoin="round"></path>
        </g>
    </g>
</svg>