<?xml version="1.0" encoding="UTF-8"?>
<svg width="42px" height="80px" viewBox="0 0 42 80" version="1.1" xmlns="http://www.w3.org/2000/svg" xmlns:xlink="http://www.w3.org/1999/xlink">
    <!-- Generator: Sketch 50.2 (55047) - http://www.bohemiancoding.com/sketch -->
    <title>4</title>
    <desc>Created with Sketch.</desc>
    <defs>
        <linearGradient x1="50%" y1="100%" x2="50%" y2="3.061617e-15%" id="linearGradient-1">
            <stop stop-color="#FDFED0" offset="0%"></stop>
            <stop stop-color="#FB8E64" offset="24.8519814%"></stop>
            <stop stop-color="#BA3877" offset="49.0804616%"></stop>
            <stop stop-color="#54137C" offset="72.607559%"></stop>
            <stop stop-color="#000004" offset="100%"></stop>
        </linearGradient>
    </defs>
    <g id="Page-1" stroke="none" stroke-width="1" fill="none" fill-rule="evenodd">
        <g id="4">
            <rect id="Rectangle-3" fill="url(#linearGradient-1)" x="0" y="0" width="10" height="80"></rect>
            <path d="M22.19,60.44 C22.1366667,60.52 22.0666667,60.56 21.98,60.56 C21.9533333,60.56 21.9,60.5466667 21.82,60.52 L21.48,60.42 C21.3733333,60.3866667 21.3266667,60.2966667 21.34,60.15 L21.59,57.23 C21.6033333,57.0766667 21.6766667,57 21.81,57 L24.44,57 C24.5866667,57 24.66,57.0766667 24.66,57.23 L24.66,57.56 C24.66,57.7133333 24.5866667,57.79 24.44,57.79 L22.41,57.79 L22.24,59.52 C22.4266667,59.36 22.7033333,59.28 23.07,59.28 C23.5833333,59.28 24.0166667,59.4533333 24.37,59.8 C24.7233333,60.1466667 24.9,60.5833333 24.9,61.11 L24.9,62.25 C24.9,62.7633333 24.7166667,63.2 24.35,63.56 C23.9833333,63.92 23.5366667,64.1 23.01,64.1 C22.4633333,64.1 22.0083333,63.9216667 21.645,63.565 C21.2816667,63.2083333 21.1,62.7733333 21.1,62.26 C21.1,62.2066667 21.12,62.16 21.16,62.12 C21.2,62.08 21.2566667,62.06 21.33,62.06 L21.71,62.06 C21.7833333,62.06 21.84,62.08 21.88,62.12 C21.92,62.16 21.94,62.2066667 21.94,62.26 C21.94,62.5533333 22.0433333,62.8016667 22.25,63.005 C22.4566667,63.2083333 22.71,63.31 23.01,63.31 C23.3033333,63.31 23.5516667,63.2083333 23.755,63.005 C23.9583333,62.8016667 24.06,62.5533333 24.06,62.26 L24.06,61.12 C24.06,60.8266667 23.9566667,60.5783333 23.75,60.375 C23.5433333,60.1716667 23.2866667,60.07 22.98,60.07 C22.84,60.07 22.7066667,60.0983333 22.58,60.155 C22.4533333,60.2116667 22.3633333,60.2633333 22.31,60.31 C22.2566667,60.3566667 22.2166667,60.4 22.19,60.44 Z M30.32,58.74 L30.32,62.26 C30.32,62.7733333 30.145,63.2083333 29.795,63.565 C29.445,63.9216667 29.01,64.1 28.49,64.1 C27.97,64.1 27.5383333,63.92 27.195,63.56 C26.8516667,63.2 26.68,62.7633333 26.68,62.25 L26.68,58.74 C26.68,58.2266667 26.8516667,57.7916667 27.195,57.435 C27.5383333,57.0783333 27.97,56.9 28.49,56.9 C29.01,56.9 29.445,57.0783333 29.795,57.435 C30.145,57.7916667 30.32,58.2266667 30.32,58.74 Z M29.49,62.27 L29.49,58.75 C29.49,58.4566667 29.3933333,58.2066667 29.2,58 C29.0066667,57.7933333 28.77,57.69 28.49,57.69 C28.2166667,57.69 27.9833333,57.7933333 27.79,58 C27.5966667,58.2066667 27.5,58.4566667 27.5,58.75 L27.5,62.26 C27.5,62.5533333 27.5966667,62.8016667 27.79,63.005 C27.9833333,63.2083333 28.22,63.31 28.5,63.31 C28.7733333,63.31 29.0066667,63.21 29.2,63.01 C29.3933333,62.81 29.49,62.5633333 29.49,62.27 Z M36.04,57.25 L33.9,60.3 L36.16,63.75 C36.1933333,63.8033333 36.21,63.8466667 36.21,63.88 C36.21,63.96 36.1533333,64 36.04,64 L35.5,64 C35.4,64 35.31,63.9366667 35.23,63.81 L33,60.35 L33,63.8 C33,63.8533333 32.98,63.9 32.94,63.94 C32.9,63.98 32.8433333,64 32.77,64 L32.39,64 C32.3166667,64 32.26,63.98 32.22,63.94 C32.18,63.9 32.16,63.8533333 32.16,63.8 L32.16,57.2 C32.16,57.1466667 32.18,57.1 32.22,57.06 C32.26,57.02 32.3166667,57 32.39,57 L32.77,57 C32.8433333,57 32.9,57.02 32.94,57.06 C32.98,57.1 33,57.1466667 33,57.2 L33,60.23 L35.1,57.2 C35.1866667,57.0666667 35.28,57 35.38,57 L35.92,57 C36.0333333,57 36.09,57.04 36.09,57.12 C36.09,57.1533333 36.0733333,57.1966667 36.04,57.25 Z" id="50K" fill="#34444C" opacity="0.600000024"></path>
            <path d="M21.39,38.18 L22.52,38 L23.23,38 C23.2766667,38 23.3183333,38.0166667 23.355,38.05 C23.3916667,38.0833333 23.41,38.1266667 23.41,38.18 L23.41,44.23 L24.73,44.23 C24.7766667,44.23 24.8183333,44.2483333 24.855,44.285 C24.8916667,44.3216667 24.91,44.3633333 24.91,44.41 L24.91,44.82 C24.91,44.8733333 24.8916667,44.9166667 24.855,44.95 C24.8183333,44.9833333 24.7766667,45 24.73,45 L21.26,45 C21.2066667,45 21.1633333,44.9833333 21.13,44.95 C21.0966667,44.9166667 21.08,44.8733333 21.08,44.82 L21.08,44.41 C21.08,44.3633333 21.0966667,44.3216667 21.13,44.285 C21.1633333,44.2483333 21.2066667,44.23 21.26,44.23 L22.57,44.23 L22.57,38.79 L21.47,38.96 L21.44,38.96 C21.4133333,38.9666667 21.3833333,38.97 21.35,38.97 C21.2566667,38.97 21.21,38.91 21.21,38.79 L21.21,38.37 C21.21,38.27 21.27,38.2066667 21.39,38.18 Z M30.32,39.74 L30.32,43.26 C30.32,43.7733333 30.145,44.2083333 29.795,44.565 C29.445,44.9216667 29.01,45.1 28.49,45.1 C27.97,45.1 27.5383333,44.92 27.195,44.56 C26.8516667,44.2 26.68,43.7633333 26.68,43.25 L26.68,39.74 C26.68,39.2266667 26.8516667,38.7916667 27.195,38.435 C27.5383333,38.0783333 27.97,37.9 28.49,37.9 C29.01,37.9 29.445,38.0783333 29.795,38.435 C30.145,38.7916667 30.32,39.2266667 30.32,39.74 Z M29.49,43.27 L29.49,39.75 C29.49,39.4566667 29.3933333,39.2066667 29.2,39 C29.0066667,38.7933333 28.77,38.69 28.49,38.69 C28.2166667,38.69 27.9833333,38.7933333 27.79,39 C27.5966667,39.2066667 27.5,39.4566667 27.5,39.75 L27.5,43.26 C27.5,43.5533333 27.5966667,43.8016667 27.79,44.005 C27.9833333,44.2083333 28.22,44.31 28.5,44.31 C28.7733333,44.31 29.0066667,44.21 29.2,44.01 C29.3933333,43.81 29.49,43.5633333 29.49,43.27 Z M35.82,39.74 L35.82,43.26 C35.82,43.7733333 35.645,44.2083333 35.295,44.565 C34.945,44.9216667 34.51,45.1 33.99,45.1 C33.47,45.1 33.0383333,44.92 32.695,44.56 C32.3516667,44.2 32.18,43.7633333 32.18,43.25 L32.18,39.74 C32.18,39.2266667 32.3516667,38.7916667 32.695,38.435 C33.0383333,38.0783333 33.47,37.9 33.99,37.9 C34.51,37.9 34.945,38.0783333 35.295,38.435 C35.645,38.7916667 35.82,39.2266667 35.82,39.74 Z M34.99,43.27 L34.99,39.75 C34.99,39.4566667 34.8933333,39.2066667 34.7,39 C34.5066667,38.7933333 34.27,38.69 33.99,38.69 C33.7166667,38.69 33.4833333,38.7933333 33.29,39 C33.0966667,39.2066667 33,39.4566667 33,39.75 L33,43.26 C33,43.5533333 33.0966667,43.8016667 33.29,44.005 C33.4833333,44.2083333 33.72,44.31 34,44.31 C34.2733333,44.31 34.5066667,44.21 34.7,44.01 C34.8933333,43.81 34.99,43.5633333 34.99,43.27 Z M41.54,38.25 L39.4,41.3 L41.66,44.75 C41.6933333,44.8033333 41.71,44.8466667 41.71,44.88 C41.71,44.96 41.6533333,45 41.54,45 L41,45 C40.9,45 40.81,44.9366667 40.73,44.81 L38.5,41.35 L38.5,44.8 C38.5,44.8533333 38.48,44.9 38.44,44.94 C38.4,44.98 38.3433333,45 38.27,45 L37.89,45 C37.8166667,45 37.76,44.98 37.72,44.94 C37.68,44.9 37.66,44.8533333 37.66,44.8 L37.66,38.2 C37.66,38.1466667 37.68,38.1 37.72,38.06 C37.76,38.02 37.8166667,38 37.89,38 L38.27,38 C38.3433333,38 38.4,38.02 38.44,38.06 C38.48,38.1 38.5,38.1466667 38.5,38.2 L38.5,41.23 L40.6,38.2 C40.6866667,38.0666667 40.78,38 40.88,38 L41.42,38 C41.5333333,38 41.59,38.04 41.59,38.12 C41.59,38.1533333 41.5733333,38.1966667 41.54,38.25 Z" id="100K" fill="#34444C" opacity="0.600000024"></path>
            <path d="M22.19,22.44 C22.1366667,22.52 22.0666667,22.56 21.98,22.56 C21.9533333,22.56 21.9,22.5466667 21.82,22.52 L21.48,22.42 C21.3733333,22.3866667 21.3266667,22.2966667 21.34,22.15 L21.59,19.23 C21.6033333,19.0766667 21.6766667,19 21.81,19 L24.44,19 C24.5866667,19 24.66,19.0766667 24.66,19.23 L24.66,19.56 C24.66,19.7133333 24.5866667,19.79 24.44,19.79 L22.41,19.79 L22.24,21.52 C22.4266667,21.36 22.7033333,21.28 23.07,21.28 C23.5833333,21.28 24.0166667,21.4533333 24.37,21.8 C24.7233333,22.1466667 24.9,22.5833333 24.9,23.11 L24.9,24.25 C24.9,24.7633333 24.7166667,25.2 24.35,25.56 C23.9833333,25.92 23.5366667,26.1 23.01,26.1 C22.4633333,26.1 22.0083333,25.9216667 21.645,25.565 C21.2816667,25.2083333 21.1,24.7733333 21.1,24.26 C21.1,24.2066667 21.12,24.16 21.16,24.12 C21.2,24.08 21.2566667,24.06 21.33,24.06 L21.71,24.06 C21.7833333,24.06 21.84,24.08 21.88,24.12 C21.92,24.16 21.94,24.2066667 21.94,24.26 C21.94,24.5533333 22.0433333,24.8016667 22.25,25.005 C22.4566667,25.2083333 22.71,25.31 23.01,25.31 C23.3033333,25.31 23.5516667,25.2083333 23.755,25.005 C23.9583333,24.8016667 24.06,24.5533333 24.06,24.26 L24.06,23.12 C24.06,22.8266667 23.9566667,22.5783333 23.75,22.375 C23.5433333,22.1716667 23.2866667,22.07 22.98,22.07 C22.84,22.07 22.7066667,22.0983333 22.58,22.155 C22.4533333,22.2116667 22.3633333,22.2633333 22.31,22.31 C22.2566667,22.3566667 22.2166667,22.4 22.19,22.44 Z M30.32,20.74 L30.32,24.26 C30.32,24.7733333 30.145,25.2083333 29.795,25.565 C29.445,25.9216667 29.01,26.1 28.49,26.1 C27.97,26.1 27.5383333,25.92 27.195,25.56 C26.8516667,25.2 26.68,24.7633333 26.68,24.25 L26.68,20.74 C26.68,20.2266667 26.8516667,19.7916667 27.195,19.435 C27.5383333,19.0783333 27.97,18.9 28.49,18.9 C29.01,18.9 29.445,19.0783333 29.795,19.435 C30.145,19.7916667 30.32,20.2266667 30.32,20.74 Z M29.49,24.27 L29.49,20.75 C29.49,20.4566667 29.3933333,20.2066667 29.2,20 C29.0066667,19.7933333 28.77,19.69 28.49,19.69 C28.2166667,19.69 27.9833333,19.7933333 27.79,20 C27.5966667,20.2066667 27.5,20.4566667 27.5,20.75 L27.5,24.26 C27.5,24.5533333 27.5966667,24.8016667 27.79,25.005 C27.9833333,25.2083333 28.22,25.31 28.5,25.31 C28.7733333,25.31 29.0066667,25.21 29.2,25.01 C29.3933333,24.81 29.49,24.5633333 29.49,24.27 Z M35.82,20.74 L35.82,24.26 C35.82,24.7733333 35.645,25.2083333 35.295,25.565 C34.945,25.9216667 34.51,26.1 33.99,26.1 C33.47,26.1 33.0383333,25.92 32.695,25.56 C32.3516667,25.2 32.18,24.7633333 32.18,24.25 L32.18,20.74 C32.18,20.2266667 32.3516667,19.7916667 32.695,19.435 C33.0383333,19.0783333 33.47,18.9 33.99,18.9 C34.51,18.9 34.945,19.0783333 35.295,19.435 C35.645,19.7916667 35.82,20.2266667 35.82,20.74 Z M34.99,24.27 L34.99,20.75 C34.99,20.4566667 34.8933333,20.2066667 34.7,20 C34.5066667,19.7933333 34.27,19.69 33.99,19.69 C33.7166667,19.69 33.4833333,19.7933333 33.29,20 C33.0966667,20.2066667 33,20.4566667 33,20.75 L33,24.26 C33,24.5533333 33.0966667,24.8016667 33.29,25.005 C33.4833333,25.2083333 33.72,25.31 34,25.31 C34.2733333,25.31 34.5066667,25.21 34.7,25.01 C34.8933333,24.81 34.99,24.5633333 34.99,24.27 Z M41.54,19.25 L39.4,22.3 L41.66,25.75 C41.6933333,25.8033333 41.71,25.8466667 41.71,25.88 C41.71,25.96 41.6533333,26 41.54,26 L41,26 C40.9,26 40.81,25.9366667 40.73,25.81 L38.5,22.35 L38.5,25.8 C38.5,25.8533333 38.48,25.9 38.44,25.94 C38.4,25.98 38.3433333,26 38.27,26 L37.89,26 C37.8166667,26 37.76,25.98 37.72,25.94 C37.68,25.9 37.66,25.8533333 37.66,25.8 L37.66,19.2 C37.66,19.1466667 37.68,19.1 37.72,19.06 C37.76,19.02 37.8166667,19 37.89,19 L38.27,19 C38.3433333,19 38.4,19.02 38.44,19.06 C38.48,19.1 38.5,19.1466667 38.5,19.2 L38.5,22.23 L40.6,19.2 C40.6866667,19.0666667 40.78,19 40.88,19 L41.42,19 C41.5333333,19 41.59,19.04 41.59,19.12 C41.59,19.1533333 41.5733333,19.1966667 41.54,19.25 Z" id="500K" fill="#34444C" opacity="0.600000024"></path>
            <path d="M21.39,0.18 L22.52,0 L23.23,0 C23.2766667,0 23.3183333,0.0166667175 23.355,0.05 C23.3916667,0.0833332825 23.41,0.126666718 23.41,0.18 L23.41,6.23 L24.73,6.23 C24.7766667,6.23 24.8183333,6.24833328 24.855,6.285 C24.8916667,6.32166672 24.91,6.36333328 24.91,6.41 L24.91,6.82 C24.91,6.87333328 24.8916667,6.91666672 24.855,6.95 C24.8183333,6.98333328 24.7766667,7 24.73,7 L21.26,7 C21.2066667,7 21.1633333,6.98333328 21.13,6.95 C21.0966667,6.91666672 21.08,6.87333328 21.08,6.82 L21.08,6.41 C21.08,6.36333328 21.0966667,6.32166672 21.13,6.285 C21.1633333,6.24833328 21.2066667,6.23 21.26,6.23 L22.57,6.23 L22.57,0.79 L21.47,0.96 L21.44,0.96 C21.4133333,0.966666718 21.3833333,0.97 21.35,0.97 C21.2566667,0.97 21.21,0.91 21.21,0.79 L21.21,0.37 C21.21,0.27 21.27,0.206666718 21.39,0.18 Z M29.55,1.89 L28.95,3.49 C28.8966667,3.62333328 28.82,3.69 28.72,3.69 L28.28,3.69 C28.18,3.69 28.1033333,3.62333328 28.05,3.49 L27.45,1.9 L27.28,1.18 L27.22,1.19 L27.3,2.36 L27.3,6.8 C27.3,6.85333328 27.28,6.9 27.24,6.94 C27.2,6.98 27.1433333,7 27.07,7 L26.69,7 C26.6166667,7 26.56,6.98 26.52,6.94 C26.48,6.9 26.46,6.85333328 26.46,6.8 L26.46,0.2 C26.46,0.146666718 26.48,0.1 26.52,0.06 C26.56,0.02 26.6166667,0 26.69,0 L27.39,0 C27.5033333,0 27.58,0.0666667175 27.62,0.2 L28.48,2.84 L28.52,2.84 L29.38,0.2 C29.42,0.0666667175 29.4966667,0 29.61,0 L30.31,0 C30.3833333,0 30.44,0.02 30.48,0.06 C30.52,0.1 30.54,0.146666718 30.54,0.2 L30.54,6.8 C30.54,6.85333328 30.52,6.9 30.48,6.94 C30.44,6.98 30.3833333,7 30.31,7 L29.93,7 C29.8566667,7 29.8,6.98 29.76,6.94 C29.72,6.9 29.7,6.85333328 29.7,6.8 L29.7,2.36 L29.78,1.19 L29.72,1.18 L29.55,1.89 Z" id="1M" fill="#34444C" opacity="0.600000024"></path>
            <path d="M10,42 L16,42" id="Shape" stroke="#34444C" opacity="0.300000012" stroke-linejoin="round"></path>
            <path d="M10,23 L16,23" id="Shape" stroke="#34444C" opacity="0.300000012" stroke-linejoin="round"></path>
            <path d="M10,4 L16,4" id="Shape" stroke="#34444C" opacity="0.300000012" stroke-linejoin="round"></path>
            <path d="M10,61 L16,61" id="Shape" stroke="#34444C" opacity="0.300000012" stroke-linejoin="round"></path>
        </g>
    </g>
</svg>